<?xml version="1.0" encoding="UTF-8" standalone="no"?>
<!-- Created with Inkscape (http://www.inkscape.org/) -->

<svg
   xmlns:dc="http://purl.org/dc/elements/1.1/"
   xmlns:cc="http://creativecommons.org/ns#"
   xmlns:rdf="http://www.w3.org/1999/02/22-rdf-syntax-ns#"
   xmlns:svg="http://www.w3.org/2000/svg"
   xmlns="http://www.w3.org/2000/svg"
   xmlns:xlink="http://www.w3.org/1999/xlink"
   xmlns:sodipodi="http://sodipodi.sourceforge.net/DTD/sodipodi-0.dtd"
   xmlns:inkscape="http://www.inkscape.org/namespaces/inkscape"
   width="210mm"
   height="297mm"
   id="svg11731"
   version="1.1"
   inkscape:version="0.48.2 r9819"
   sodipodi:docname="kohonen.pdf">
  <defs
     id="defs11733">
    <linearGradient
       inkscape:collect="always"
       id="linearGradient5344">
      <stop
         style="stop-color:#000000;stop-opacity:1;"
         offset="0"
         id="stop5346" />
      <stop
         style="stop-color:#000000;stop-opacity:0;"
         offset="1"
         id="stop5348" />
    </linearGradient>
    <linearGradient
       inkscape:collect="always"
       xlink:href="#linearGradient5344"
       id="linearGradient5342"
       x1="243.95184"
       y1="424.0473"
       x2="134.3503"
       y2="278.58533"
       gradientUnits="userSpaceOnUse" />
    <linearGradient
       inkscape:collect="always"
       xlink:href="#linearGradient5344-9"
       id="linearGradient5342-1"
       x1="243.95184"
       y1="424.0473"
       x2="134.3503"
       y2="278.58533"
       gradientUnits="userSpaceOnUse" />
    <linearGradient
       inkscape:collect="always"
       id="linearGradient5344-9">
      <stop
         style="stop-color:#000000;stop-opacity:1;"
         offset="0"
         id="stop5346-0" />
      <stop
         style="stop-color:#000000;stop-opacity:0;"
         offset="1"
         id="stop5348-6" />
    </linearGradient>
    <linearGradient
       gradientTransform="translate(0,2.6171875e-6)"
       y2="278.58533"
       x2="134.3503"
       y1="424.0473"
       x1="243.95184"
       gradientUnits="userSpaceOnUse"
       id="linearGradient5365"
       xlink:href="#linearGradient5344-9"
       inkscape:collect="always" />
    <linearGradient
       gradientTransform="translate(0,2.6171875e-6)"
       y2="278.58533"
       x2="134.3503"
       y1="424.0473"
       x1="243.95184"
       gradientUnits="userSpaceOnUse"
       id="linearGradient5365-5"
       xlink:href="#linearGradient5344-9-6"
       inkscape:collect="always" />
    <linearGradient
       inkscape:collect="always"
       id="linearGradient5344-9-6">
      <stop
         style="stop-color:#000000;stop-opacity:1;"
         offset="0"
         id="stop5346-0-1" />
      <stop
         style="stop-color:#000000;stop-opacity:0;"
         offset="1"
         id="stop5348-6-0" />
    </linearGradient>
    <linearGradient
       y2="278.58533"
       x2="134.3503"
       y1="424.0473"
       x1="243.95184"
       gradientTransform="translate(0,2.6171875e-6)"
       gradientUnits="userSpaceOnUse"
       id="linearGradient5399"
       xlink:href="#linearGradient5344-9-6"
       inkscape:collect="always" />
    <linearGradient
       y2="278.58533"
       x2="134.3503"
       y1="424.0473"
       x1="243.95184"
       gradientTransform="translate(0,2.6171875e-6)"
       gradientUnits="userSpaceOnUse"
       id="linearGradient5399-1"
       xlink:href="#linearGradient5344-9-6-0"
       inkscape:collect="always" />
    <linearGradient
       inkscape:collect="always"
       id="linearGradient5344-9-6-0">
      <stop
         style="stop-color:#000000;stop-opacity:1;"
         offset="0"
         id="stop5346-0-1-3" />
      <stop
         style="stop-color:#000000;stop-opacity:0;"
         offset="1"
         id="stop5348-6-0-2" />
    </linearGradient>
    <linearGradient
       y2="278.58533"
       x2="134.3503"
       y1="424.0473"
       x1="243.95184"
       gradientTransform="translate(0,2.6171875e-6)"
       gradientUnits="userSpaceOnUse"
       id="linearGradient5433"
       xlink:href="#linearGradient5344-9-6-0"
       inkscape:collect="always" />
    <linearGradient
       y2="278.58533"
       x2="134.3503"
       y1="424.0473"
       x1="243.95184"
       gradientTransform="translate(0,2.6171875e-6)"
       gradientUnits="userSpaceOnUse"
       id="linearGradient5433-6"
       xlink:href="#linearGradient5344-9-6-0-2"
       inkscape:collect="always" />
    <linearGradient
       inkscape:collect="always"
       id="linearGradient5344-9-6-0-2">
      <stop
         style="stop-color:#000000;stop-opacity:1;"
         offset="0"
         id="stop5346-0-1-3-1" />
      <stop
         style="stop-color:#000000;stop-opacity:0;"
         offset="1"
         id="stop5348-6-0-2-7" />
    </linearGradient>
    <linearGradient
       y2="278.58533"
       x2="134.3503"
       y1="424.0473"
       x1="243.95184"
       gradientTransform="translate(0,2.6171875e-6)"
       gradientUnits="userSpaceOnUse"
       id="linearGradient5467"
       xlink:href="#linearGradient5344-9-6-0-2"
       inkscape:collect="always" />
  </defs>
  <sodipodi:namedview
     id="base"
     pagecolor="#ffffff"
     bordercolor="#666666"
     borderopacity="1.0"
     inkscape:pageopacity="0.0"
     inkscape:pageshadow="2"
     inkscape:zoom="0.98994949"
     inkscape:cx="427.27384"
     inkscape:cy="935.79755"
     inkscape:document-units="px"
     inkscape:current-layer="layer1"
     showgrid="false"
     inkscape:window-width="1300"
     inkscape:window-height="744"
     inkscape:window-x="66"
     inkscape:window-y="24"
     inkscape:window-maximized="1" />
  <metadata
     id="metadata11736">
    <rdf:RDF>
      <cc:Work
         rdf:about="">
        <dc:format>image/svg+xml</dc:format>
        <dc:type
           rdf:resource="http://purl.org/dc/dcmitype/StillImage" />
        <dc:title></dc:title>
      </cc:Work>
    </rdf:RDF>
  </metadata>
  <g
     inkscape:label="Camada 1"
     inkscape:groupmode="layer"
     id="layer1">
    <g
       id="g5028"
       transform="matrix(1.1431435,0.43511978,-0.8903805,0.74508618,282.5156,-34.99001)">
      <rect
         y="271.62939"
         x="138.41093"
         height="45.751068"
         width="110.40327"
         id="rect4886-7"
         style="opacity:0.7;fill:#ffffff;fill-opacity:1;fill-rule:nonzero;stroke:#000000;stroke-width:3;stroke-linecap:round;stroke-linejoin:round;stroke-miterlimit:4;stroke-opacity:1;stroke-dasharray:none;stroke-dashoffset:0" />
      <g
         id="g5003">
        <path
           sodipodi:type="arc"
           style="fill:#ffffff;fill-opacity:1;fill-rule:nonzero;stroke:#000000;stroke-opacity:1"
           id="path4251-31"
           sodipodi:cx="160.61426"
           sodipodi:cy="133.12337"
           sodipodi:rx="12.121831"
           sodipodi:ry="12.121831"
           d="m 172.73609,133.12337 c 0,6.6947 -5.42713,12.12183 -12.12183,12.12183 -6.6947,0 -12.12183,-5.42713 -12.12183,-12.12183 0,-6.69471 5.42713,-12.12183 12.12183,-12.12183 6.6947,0 12.12183,5.42712 12.12183,12.12183 z"
           transform="translate(0,160.71429)" />
        <path
           transform="translate(32.998321,160.71429)"
           sodipodi:type="arc"
           style="fill:#ffffff;fill-opacity:1;fill-rule:nonzero;stroke:#000000;stroke-opacity:1"
           id="path4251-2-2"
           sodipodi:cx="160.61426"
           sodipodi:cy="133.12337"
           sodipodi:rx="12.121831"
           sodipodi:ry="12.121831"
           d="m 172.73609,133.12337 c 0,6.6947 -5.42713,12.12183 -12.12183,12.12183 -6.6947,0 -12.12183,-5.42713 -12.12183,-12.12183 0,-6.69471 5.42713,-12.12183 12.12183,-12.12183 6.6947,0 12.12183,5.42712 12.12183,12.12183 z" />
        <path
           transform="translate(65.996635,160.7143)"
           sodipodi:type="arc"
           style="fill:#ffffff;fill-opacity:1;fill-rule:nonzero;stroke:#000000;stroke-opacity:1"
           id="path4251-3-2"
           sodipodi:cx="160.61426"
           sodipodi:cy="133.12337"
           sodipodi:rx="12.121831"
           sodipodi:ry="12.121831"
           d="m 172.73609,133.12337 c 0,6.6947 -5.42713,12.12183 -12.12183,12.12183 -6.6947,0 -12.12183,-5.42713 -12.12183,-12.12183 0,-6.69471 5.42713,-12.12183 12.12183,-12.12183 6.6947,0 12.12183,5.42712 12.12183,12.12183 z" />
      </g>
    </g>
    <g
       id="g5077"
       transform="matrix(1.2270327,0.17295875,-0.13957712,0.9902112,7.1881362,-34.363847)">
      <path
         inkscape:connector-curvature="0"
         id="path5035"
         d="m 137.14286,183.07647 50.71428,74.28571 -24.28571,-106.42857"
         style="fill:none;stroke:#000000;stroke-width:2;stroke-linecap:butt;stroke-linejoin:miter;stroke-miterlimit:4;stroke-opacity:1;stroke-dasharray:none" />
      <path
         inkscape:connector-curvature="0"
         id="path5037"
         d="m 190.71429,123.79075 -3.57143,132.90047 -21.42857,-67.18618"
         style="fill:none;stroke:#000000;stroke-width:2;stroke-linecap:butt;stroke-linejoin:miter;stroke-miterlimit:4;stroke-opacity:1;stroke-dasharray:none"
         sodipodi:nodetypes="ccc" />
      <path
         inkscape:connector-curvature="0"
         id="path5039"
         d="m 196.42857,158.79075 -8.31889,98.53553 31.17603,-123.53553"
         style="fill:none;stroke:#000000;stroke-width:2;stroke-linecap:butt;stroke-linejoin:miter;stroke-miterlimit:4;stroke-opacity:1;stroke-dasharray:none"
         sodipodi:nodetypes="ccc" />
      <path
         inkscape:connector-curvature="0"
         id="path5041"
         d="M 197.14286,195.93361 189.28571,256.6479 225,169.50504"
         style="fill:none;stroke:#000000;stroke-width:2;stroke-linecap:butt;stroke-linejoin:miter;stroke-miterlimit:4;stroke-opacity:1;stroke-dasharray:none" />
      <path
         inkscape:connector-curvature="0"
         id="path5043"
         d="M 187.30874,257.11708 252.85714,141.6479"
         style="fill:none;stroke:#000000;stroke-width:2;stroke-linecap:butt;stroke-linejoin:miter;stroke-miterlimit:4;stroke-opacity:1;stroke-dasharray:none"
         sodipodi:nodetypes="cc" />
      <path
         inkscape:connector-curvature="0"
         id="path5045"
         d="M 136.42857,181.6479 220.71429,265.93361 165,152.36218"
         style="fill:none;stroke:#000000;stroke-width:2;stroke-linecap:butt;stroke-linejoin:miter;stroke-miterlimit:4;stroke-opacity:1;stroke-dasharray:none" />
      <path
         inkscape:connector-curvature="0"
         id="path5047"
         d="m 190.71429,123.07647 29.99628,142.77048 -54.282,-76.34191"
         style="fill:none;stroke:#000000;stroke-width:2;stroke-linecap:butt;stroke-linejoin:miter;stroke-miterlimit:4;stroke-opacity:1;stroke-dasharray:none"
         sodipodi:nodetypes="ccc" />
      <path
         inkscape:connector-curvature="0"
         id="path5049"
         d="m 195,158.79075 26.76033,106.89032 -3.1889,-129.74746"
         style="fill:none;stroke:#000000;stroke-width:2;stroke-linecap:butt;stroke-linejoin:miter;stroke-miterlimit:4;stroke-opacity:1;stroke-dasharray:none"
         sodipodi:nodetypes="ccc" />
      <path
         inkscape:connector-curvature="0"
         id="path5051"
         d="m 196.42857,197.36218 c 0,0 25,65 25,67.85715 l 2.85714,-96.42858"
         style="fill:none;stroke:#000000;stroke-width:2;stroke-linecap:butt;stroke-linejoin:miter;stroke-miterlimit:4;stroke-opacity:1;stroke-dasharray:none" />
      <path
         inkscape:connector-curvature="0"
         id="path5053"
         d="M 221.63406,265.93732 252.85714,141.6479"
         style="fill:none;stroke:#000000;stroke-width:2;stroke-linecap:butt;stroke-linejoin:miter;stroke-miterlimit:4;stroke-opacity:1;stroke-dasharray:none"
         sodipodi:nodetypes="cc" />
      <path
         inkscape:connector-curvature="0"
         id="path5055"
         d="m 232.14286,205.21933 -43.99357,51.84699 72.565,-78.98985"
         style="fill:none;stroke:#000000;stroke-width:2;stroke-linecap:butt;stroke-linejoin:miter;stroke-miterlimit:4;stroke-opacity:1;stroke-dasharray:none"
         sodipodi:nodetypes="ccc" />
      <path
         inkscape:connector-curvature="0"
         id="path5057"
         d="M 189.28571,255.21933 287.14286,149.50504"
         style="fill:none;stroke:#000000;stroke-width:2;stroke-linecap:butt;stroke-linejoin:miter;stroke-miterlimit:4;stroke-opacity:1;stroke-dasharray:none" />
      <path
         inkscape:connector-curvature="0"
         id="path5059"
         d="m 230,205.21933 -7.14286,57.85714 38.57143,-87.14286"
         style="fill:none;stroke:#000000;stroke-width:2;stroke-linecap:butt;stroke-linejoin:miter;stroke-miterlimit:4;stroke-opacity:1;stroke-dasharray:none" />
      <path
         inkscape:connector-curvature="0"
         id="path5061"
         d="M 221.34191,265.81106 287.14286,151.6479"
         style="fill:none;stroke:#000000;stroke-width:2;stroke-linecap:butt;stroke-linejoin:miter;stroke-miterlimit:4;stroke-opacity:1;stroke-dasharray:none"
         sodipodi:nodetypes="cc" />
      <path
         inkscape:connector-curvature="0"
         id="path5063"
         d="m 137.14286,182.36218 115,92.85715 -87.85715,-124.28572"
         style="fill:none;stroke:#000000;stroke-width:2;stroke-linecap:butt;stroke-linejoin:miter;stroke-miterlimit:4;stroke-opacity:1;stroke-dasharray:none" />
      <path
         inkscape:connector-curvature="0"
         id="path5065"
         d="m 191.42857,122.36218 c 0,0 57.85714,149.28572 60.71429,151.42857 l -85,-84.28571"
         style="fill:none;stroke:#000000;stroke-width:2;stroke-linecap:butt;stroke-linejoin:miter;stroke-miterlimit:4;stroke-opacity:1;stroke-dasharray:none" />
      <path
         inkscape:connector-curvature="0"
         id="path5067"
         d="M 195,159.50504 251.42857,272.36218 219.28571,133.79075"
         style="fill:none;stroke:#000000;stroke-width:2;stroke-linecap:butt;stroke-linejoin:miter;stroke-miterlimit:4;stroke-opacity:1;stroke-dasharray:none" />
      <path
         inkscape:connector-curvature="0"
         id="path5069"
         d="M 252.14286,274.50504 196.42857,195.93361"
         style="fill:none;stroke:#000000;stroke-width:2;stroke-linecap:butt;stroke-linejoin:miter;stroke-miterlimit:4;stroke-opacity:1;stroke-dasharray:none" />
      <path
         inkscape:connector-curvature="0"
         id="path5071"
         d="M 225,170.21933 252.14286,271.6479 251.42857,143.07647"
         style="fill:none;stroke:#000000;stroke-width:2;stroke-linecap:butt;stroke-linejoin:miter;stroke-miterlimit:4;stroke-opacity:1;stroke-dasharray:none" />
      <path
         inkscape:connector-curvature="0"
         id="path5073"
         d="m 231.42857,205.21933 20.88388,70.17331 8.40184,-98.74474"
         style="fill:none;stroke:#000000;stroke-width:2;stroke-linecap:butt;stroke-linejoin:miter;stroke-miterlimit:4;stroke-opacity:1;stroke-dasharray:none"
         sodipodi:nodetypes="ccc" />
      <path
         inkscape:connector-curvature="0"
         id="path5075"
         d="M 252.6046,274.72168 287.85714,150.93361"
         style="fill:none;stroke:#000000;stroke-width:2;stroke-linecap:butt;stroke-linejoin:miter;stroke-miterlimit:4;stroke-opacity:1;stroke-dasharray:none"
         sodipodi:nodetypes="cc" />
    </g>
    <g
       id="g5008"
       transform="matrix(1.1498595,0.42181086,-1.0477365,0.69331594,174.87965,-37.129922)">
      <rect
         y="110.91512"
         x="138.47005"
         height="111.75999"
         width="143.2834"
         id="rect4886"
         style="opacity:0.7;fill:#ffffff;fill-opacity:1;fill-rule:nonzero;stroke:#000000;stroke-width:3;stroke-linecap:round;stroke-linejoin:round;stroke-miterlimit:4;stroke-opacity:1;stroke-dasharray:none;stroke-dashoffset:0" />
      <g
         id="g4888">
        <g
           id="g4866">
          <path
             d="m 172.73609,133.12337 c 0,6.6947 -5.42713,12.12183 -12.12183,12.12183 -6.6947,0 -12.12183,-5.42713 -12.12183,-12.12183 0,-6.69471 5.42713,-12.12183 12.12183,-12.12183 6.6947,0 12.12183,5.42712 12.12183,12.12183 z"
             sodipodi:ry="12.121831"
             sodipodi:rx="12.121831"
             sodipodi:cy="133.12337"
             sodipodi:cx="160.61426"
             id="path4251"
             style="fill:#ffffff;fill-opacity:1;fill-rule:nonzero;stroke:#000000;stroke-opacity:1"
             sodipodi:type="arc" />
          <path
             d="m 172.73609,133.12337 c 0,6.6947 -5.42713,12.12183 -12.12183,12.12183 -6.6947,0 -12.12183,-5.42713 -12.12183,-12.12183 0,-6.69471 5.42713,-12.12183 12.12183,-12.12183 6.6947,0 12.12183,5.42712 12.12183,12.12183 z"
             sodipodi:ry="12.121831"
             sodipodi:rx="12.121831"
             sodipodi:cy="133.12337"
             sodipodi:cx="160.61426"
             id="path4251-7"
             style="fill:#ffffff;fill-opacity:1;fill-rule:nonzero;stroke:#000000;stroke-opacity:1"
             sodipodi:type="arc"
             transform="translate(3.1277466e-6,33.671761)" />
          <path
             d="m 172.73609,133.12337 c 0,6.6947 -5.42713,12.12183 -12.12183,12.12183 -6.6947,0 -12.12183,-5.42713 -12.12183,-12.12183 0,-6.69471 5.42713,-12.12183 12.12183,-12.12183 6.6947,0 12.12183,5.42712 12.12183,12.12183 z"
             sodipodi:ry="12.121831"
             sodipodi:rx="12.121831"
             sodipodi:cy="133.12337"
             sodipodi:cx="160.61426"
             id="path4251-0"
             style="fill:#ffffff;fill-opacity:1;fill-rule:nonzero;stroke:#000000;stroke-opacity:1"
             sodipodi:type="arc"
             transform="translate(3.1277466e-6,67.343486)" />
        </g>
        <g
           id="g4871"
           transform="translate(-0.3367157,0)">
          <path
             d="m 172.73609,133.12337 c 0,6.6947 -5.42713,12.12183 -12.12183,12.12183 -6.6947,0 -12.12183,-5.42713 -12.12183,-12.12183 0,-6.69471 5.42713,-12.12183 12.12183,-12.12183 6.6947,0 12.12183,5.42712 12.12183,12.12183 z"
             sodipodi:ry="12.121831"
             sodipodi:rx="12.121831"
             sodipodi:cy="133.12337"
             sodipodi:cx="160.61426"
             id="path4251-2"
             style="fill:#ffffff;fill-opacity:1;fill-rule:nonzero;stroke:#000000;stroke-opacity:1"
             sodipodi:type="arc"
             transform="translate(33.335037,-3.7521363e-6)" />
          <path
             d="m 172.73609,133.12337 c 0,6.6947 -5.42713,12.12183 -12.12183,12.12183 -6.6947,0 -12.12183,-5.42713 -12.12183,-12.12183 0,-6.69471 5.42713,-12.12183 12.12183,-12.12183 6.6947,0 12.12183,5.42712 12.12183,12.12183 z"
             sodipodi:ry="12.121831"
             sodipodi:rx="12.121831"
             sodipodi:cy="133.12337"
             sodipodi:cx="160.61426"
             id="path4251-7-0"
             style="fill:#ffffff;fill-opacity:1;fill-rule:nonzero;stroke:#000000;stroke-opacity:1"
             sodipodi:type="arc"
             transform="translate(33.335047,33.671761)" />
          <path
             d="m 172.73609,133.12337 c 0,6.6947 -5.42713,12.12183 -12.12183,12.12183 -6.6947,0 -12.12183,-5.42713 -12.12183,-12.12183 0,-6.69471 5.42713,-12.12183 12.12183,-12.12183 6.6947,0 12.12183,5.42712 12.12183,12.12183 z"
             sodipodi:ry="12.121831"
             sodipodi:rx="12.121831"
             sodipodi:cy="133.12337"
             sodipodi:cx="160.61426"
             id="path4251-0-4"
             style="fill:#ffffff;fill-opacity:1;fill-rule:nonzero;stroke:#000000;stroke-opacity:1"
             sodipodi:type="arc"
             transform="translate(33.335047,67.343486)" />
        </g>
        <g
           id="g4876"
           transform="translate(0.3367157,0)">
          <path
             d="m 172.73609,133.12337 c 0,6.6947 -5.42713,12.12183 -12.12183,12.12183 -6.6947,0 -12.12183,-5.42713 -12.12183,-12.12183 0,-6.69471 5.42713,-12.12183 12.12183,-12.12183 6.6947,0 12.12183,5.42712 12.12183,12.12183 z"
             sodipodi:ry="12.121831"
             sodipodi:rx="12.121831"
             sodipodi:cy="133.12337"
             sodipodi:cx="160.61426"
             id="path4251-3"
             style="fill:#ffffff;fill-opacity:1;fill-rule:nonzero;stroke:#000000;stroke-opacity:1"
             sodipodi:type="arc"
             transform="translate(65.659919,6.2478639e-6)" />
          <path
             d="m 172.73609,133.12337 c 0,6.6947 -5.42713,12.12183 -12.12183,12.12183 -6.6947,0 -12.12183,-5.42713 -12.12183,-12.12183 0,-6.69471 5.42713,-12.12183 12.12183,-12.12183 6.6947,0 12.12183,5.42712 12.12183,12.12183 z"
             sodipodi:ry="12.121831"
             sodipodi:rx="12.121831"
             sodipodi:cy="133.12337"
             sodipodi:cx="160.61426"
             id="path4251-7-5"
             style="fill:#ffffff;fill-opacity:1;fill-rule:nonzero;stroke:#000000;stroke-opacity:1"
             sodipodi:type="arc"
             transform="translate(65.659929,33.671764)" />
          <path
             d="m 172.73609,133.12337 c 0,6.6947 -5.42713,12.12183 -12.12183,12.12183 -6.6947,0 -12.12183,-5.42713 -12.12183,-12.12183 0,-6.69471 5.42713,-12.12183 12.12183,-12.12183 6.6947,0 12.12183,5.42712 12.12183,12.12183 z"
             sodipodi:ry="12.121831"
             sodipodi:rx="12.121831"
             sodipodi:cy="133.12337"
             sodipodi:cx="160.61426"
             id="path4251-0-3"
             style="fill:#ffffff;fill-opacity:1;fill-rule:nonzero;stroke:#000000;stroke-opacity:1"
             sodipodi:type="arc"
             transform="translate(65.659929,67.343489)" />
        </g>
        <g
           id="g4881">
          <path
             d="m 172.73609,133.12337 c 0,6.6947 -5.42713,12.12183 -12.12183,12.12183 -6.6947,0 -12.12183,-5.42713 -12.12183,-12.12183 0,-6.69471 5.42713,-12.12183 12.12183,-12.12183 6.6947,0 12.12183,5.42712 12.12183,12.12183 z"
             sodipodi:ry="12.121831"
             sodipodi:rx="12.121831"
             sodipodi:cy="133.12337"
             sodipodi:cx="160.61426"
             id="path4251-2-8"
             style="fill:#ffffff;fill-opacity:1;fill-rule:nonzero;stroke:#000000;stroke-opacity:1"
             sodipodi:type="arc"
             transform="translate(98.994958,-3.7521363e-6)" />
          <path
             d="m 172.73609,133.12337 c 0,6.6947 -5.42713,12.12183 -12.12183,12.12183 -6.6947,0 -12.12183,-5.42713 -12.12183,-12.12183 0,-6.69471 5.42713,-12.12183 12.12183,-12.12183 6.6947,0 12.12183,5.42712 12.12183,12.12183 z"
             sodipodi:ry="12.121831"
             sodipodi:rx="12.121831"
             sodipodi:cy="133.12337"
             sodipodi:cx="160.61426"
             id="path4251-7-0-9"
             style="fill:#ffffff;fill-opacity:1;fill-rule:nonzero;stroke:#000000;stroke-opacity:1"
             sodipodi:type="arc"
             transform="translate(98.994968,33.671764)" />
          <path
             d="m 172.73609,133.12337 c 0,6.6947 -5.42713,12.12183 -12.12183,12.12183 -6.6947,0 -12.12183,-5.42713 -12.12183,-12.12183 0,-6.69471 5.42713,-12.12183 12.12183,-12.12183 6.6947,0 12.12183,5.42712 12.12183,12.12183 z"
             sodipodi:ry="12.121831"
             sodipodi:rx="12.121831"
             sodipodi:cy="133.12337"
             sodipodi:cx="160.61426"
             id="path4251-0-4-1"
             style="fill:#ffffff;fill-opacity:1;fill-rule:nonzero;stroke:#000000;stroke-opacity:1"
             sodipodi:type="arc"
             transform="translate(98.994968,67.343489)" />
        </g>
      </g>
    </g>
    <path
       sodipodi:type="arc"
       style="fill:#000000;fill-opacity:1;fill-rule:nonzero;stroke:#000000;stroke-width:3;stroke-linecap:round;stroke-linejoin:round;stroke-miterlimit:4;stroke-opacity:1;stroke-dasharray:none;stroke-dashoffset:0"
       id="path5100"
       sodipodi:cx="188.48215"
       sodipodi:cy="256.38004"
       sodipodi:rx="2.9464285"
       sodipodi:ry="2.9464285"
       d="m 191.42858,256.38004 a 2.9464285,2.9464285 0 1 1 -5.89286,0 2.9464285,2.9464285 0 1 1 5.89286,0 z"
       transform="matrix(0.86570585,0.33408322,-0.68009384,0.56222105,213.96919,44.287901)"
       inkscape:transform-center-y="-3.1254408"
       inkscape:transform-center-x="-0.44055255" />
    <path
       sodipodi:type="arc"
       style="fill:#000000;fill-opacity:1;fill-rule:nonzero;stroke:#000000;stroke-width:3;stroke-linecap:round;stroke-linejoin:round;stroke-miterlimit:4;stroke-opacity:1;stroke-dasharray:none;stroke-dashoffset:0"
       id="path5100-5"
       sodipodi:cx="188.48215"
       sodipodi:cy="256.38004"
       sodipodi:rx="2.9464285"
       sodipodi:ry="2.9464285"
       d="m 191.42858,256.38004 a 2.9464285,2.9464285 0 1 1 -5.89286,0 2.9464285,2.9464285 0 1 1 5.89286,0 z"
       transform="matrix(0.86570585,0.33408322,-0.68009384,0.56222105,253.38086,58.769923)"
       inkscape:transform-center-y="-3.1254404"
       inkscape:transform-center-x="-0.44054858" />
    <path
       sodipodi:type="arc"
       style="fill:#000000;fill-opacity:1;fill-rule:nonzero;stroke:#000000;stroke-width:3;stroke-linecap:round;stroke-linejoin:round;stroke-miterlimit:4;stroke-opacity:1;stroke-dasharray:none;stroke-dashoffset:0"
       id="path5100-0"
       sodipodi:cx="188.48215"
       sodipodi:cy="256.38004"
       sodipodi:rx="2.9464285"
       sodipodi:ry="2.9464285"
       d="m 191.42858,256.38004 a 2.9464285,2.9464285 0 1 1 -5.89286,0 2.9464285,2.9464285 0 1 1 5.89286,0 z"
       transform="matrix(0.86570585,0.33408322,-0.68009384,0.56222105,289.28416,73.568923)"
       inkscape:transform-center-y="-3.1254408"
       inkscape:transform-center-x="-0.44055038" />
    <text
       xml:space="preserve"
       style="font-size:5.90147781px;font-style:normal;font-variant:normal;font-weight:normal;font-stretch:normal;line-height:125%;letter-spacing:0px;word-spacing:0px;fill:#000000;fill-opacity:1;stroke:none;font-family:Arial;-inkscape-font-specification:Arial"
       x="307.43655"
       y="314.11768"
       id="text3773"
       sodipodi:linespacing="125%"><tspan
         sodipodi:role="line"
         id="tspan3775"
         x="307.43655"
         y="314.11768"
         style="font-size:18.88472939px;font-family:Times New Roman;-inkscape-font-specification:Times New Roman">Entrada</tspan></text>
    <text
       xml:space="preserve"
       style="font-size:5.90147781px;font-style:normal;font-variant:normal;font-weight:normal;font-stretch:normal;line-height:125%;letter-spacing:0px;word-spacing:0px;fill:#000000;fill-opacity:1;stroke:none;font-family:Arial;-inkscape-font-specification:Arial"
       x="364.74603"
       y="135.93211"
       id="text3773-4"
       sodipodi:linespacing="125%"><tspan
         sodipodi:role="line"
         id="tspan3775-2"
         x="364.74603"
         y="135.93211"
         style="font-size:18.88472939px;font-family:Times New Roman;-inkscape-font-specification:Times New Roman">Saída/Mapa</tspan></text>
    <text
       xml:space="preserve"
       style="font-size:5.90147781px;font-style:normal;font-variant:normal;font-weight:normal;font-stretch:normal;line-height:125%;letter-spacing:0px;word-spacing:0px;fill:#000000;fill-opacity:1;stroke:none;font-family:Arial;-inkscape-font-specification:Arial"
       x="318.3175"
       y="233.78926"
       id="text3773-6"
       sodipodi:linespacing="125%"><tspan
         sodipodi:role="line"
         id="tspan3775-9"
         x="318.3175"
         y="233.78926"
         style="font-size:18.88472939px;font-family:Times New Roman;-inkscape-font-specification:Times New Roman">Conexões</tspan></text>
  </g>
</svg>
