<?xml version="1.0" encoding="UTF-8" standalone="no"?>
<!-- Created with Inkscape (http://www.inkscape.org/) -->

<svg
   xmlns:dc="http://purl.org/dc/elements/1.1/"
   xmlns:cc="http://creativecommons.org/ns#"
   xmlns:rdf="http://www.w3.org/1999/02/22-rdf-syntax-ns#"
   xmlns:svg="http://www.w3.org/2000/svg"
   xmlns="http://www.w3.org/2000/svg"
   xmlns:xlink="http://www.w3.org/1999/xlink"
   xmlns:sodipodi="http://sodipodi.sourceforge.net/DTD/sodipodi-0.dtd"
   xmlns:inkscape="http://www.inkscape.org/namespaces/inkscape"
   width="210mm"
   height="297mm"
   id="svg2"
   version="1.1"
   inkscape:version="0.48.2 r9819"
   sodipodi:docname="mapa_x_umatriz.pdf">
  <defs
     id="defs4">
    <linearGradient
       inkscape:collect="always"
       id="linearGradient3935">
      <stop
         style="stop-color:#b3b3b3;stop-opacity:1;"
         offset="0"
         id="stop3937" />
      <stop
         style="stop-color:#b3b3b3;stop-opacity:0;"
         offset="1"
         id="stop3939" />
    </linearGradient>
    <radialGradient
       inkscape:collect="always"
       xlink:href="#linearGradient3935-9"
       id="radialGradient3943-6"
       cx="588.23492"
       cy="267.64182"
       fx="588.23492"
       fy="267.64182"
       r="294.1781"
       gradientTransform="matrix(-0.23381715,0.3599515,-0.61548443,-0.39980029,811.38569,199.10637)"
       gradientUnits="userSpaceOnUse" />
    <linearGradient
       inkscape:collect="always"
       id="linearGradient3935-9">
      <stop
         style="stop-color:#b3b3b3;stop-opacity:1;"
         offset="0"
         id="stop3937-3" />
      <stop
         style="stop-color:#b3b3b3;stop-opacity:0;"
         offset="1"
         id="stop3939-3" />
    </linearGradient>
    <radialGradient
       inkscape:collect="always"
       xlink:href="#linearGradient3935-7"
       id="radialGradient3943-8"
       cx="588.23492"
       cy="267.64182"
       fx="588.23492"
       fy="267.64182"
       r="294.1781"
       gradientTransform="matrix(-0.23381715,0.3599515,-0.61548443,-0.39980029,811.38569,199.10637)"
       gradientUnits="userSpaceOnUse" />
    <linearGradient
       inkscape:collect="always"
       id="linearGradient3935-7">
      <stop
         style="stop-color:#b3b3b3;stop-opacity:1;"
         offset="0"
         id="stop3937-4" />
      <stop
         style="stop-color:#b3b3b3;stop-opacity:0;"
         offset="1"
         id="stop3939-6" />
    </linearGradient>
    <radialGradient
       inkscape:collect="always"
       xlink:href="#linearGradient3935-7-8"
       id="radialGradient4362-7"
       gradientUnits="userSpaceOnUse"
       gradientTransform="matrix(0.00447904,-0.42920331,0.7782291,0.00811587,140.16855,954.3065)"
       cx="1330.6652"
       cy="257.1622"
       fx="1330.6652"
       fy="257.1622"
       r="294.1781" />
    <linearGradient
       inkscape:collect="always"
       id="linearGradient3935-7-8">
      <stop
         style="stop-color:#b3b3b3;stop-opacity:1;"
         offset="0"
         id="stop3937-4-9" />
      <stop
         style="stop-color:#b3b3b3;stop-opacity:0;"
         offset="1"
         id="stop3939-6-8" />
    </linearGradient>
    <radialGradient
       inkscape:collect="always"
       xlink:href="#linearGradient3935-7-9"
       id="radialGradient4362-2"
       gradientUnits="userSpaceOnUse"
       gradientTransform="matrix(0.00447904,-0.42920331,0.7782291,0.00811587,140.16855,954.3065)"
       cx="1330.6652"
       cy="257.1622"
       fx="1330.6652"
       fy="257.1622"
       r="294.1781" />
    <linearGradient
       inkscape:collect="always"
       id="linearGradient3935-7-9">
      <stop
         style="stop-color:#b3b3b3;stop-opacity:1;"
         offset="0"
         id="stop3937-4-2" />
      <stop
         style="stop-color:#b3b3b3;stop-opacity:0;"
         offset="1"
         id="stop3939-6-1" />
    </linearGradient>
    <radialGradient
       inkscape:collect="always"
       xlink:href="#linearGradient3935"
       id="radialGradient4471"
       gradientUnits="userSpaceOnUse"
       gradientTransform="matrix(-0.23381715,0.3599515,-0.61548443,-0.39980029,815.6714,9.10637)"
       cx="588.23492"
       cy="267.64182"
       fx="588.23492"
       fy="267.64182"
       r="294.17811" />
    <radialGradient
       inkscape:collect="always"
       xlink:href="#linearGradient3935-9"
       id="radialGradient4473"
       gradientUnits="userSpaceOnUse"
       gradientTransform="matrix(0.36359408,0.22811157,-0.4163825,0.6636954,57.15433,-461.48337)"
       cx="971.367"
       cy="651.37396"
       fx="971.367"
       fy="651.37396"
       r="294.1781" />
    <radialGradient
       inkscape:collect="always"
       xlink:href="#linearGradient3935-7"
       id="radialGradient4475"
       gradientUnits="userSpaceOnUse"
       gradientTransform="matrix(0.00447904,-0.42920331,0.7782291,0.00811587,140.16855,954.3065)"
       cx="1330.6652"
       cy="257.1622"
       fx="1330.6652"
       fy="257.1622"
       r="294.1781" />
    <filter
       inkscape:collect="always"
       id="filter4481">
      <feGaussianBlur
         inkscape:collect="always"
         stdDeviation="12.634178"
         id="feGaussianBlur4483" />
    </filter>
    <radialGradient
       inkscape:collect="always"
       xlink:href="#linearGradient3935-7-5"
       id="radialGradient4362"
       gradientUnits="userSpaceOnUse"
       gradientTransform="matrix(0.00447904,-0.42920331,0.7782291,0.00811587,140.16855,954.3065)"
       cx="1330.6652"
       cy="257.1622"
       fx="1330.6652"
       fy="257.1622"
       r="294.1781" />
    <linearGradient
       inkscape:collect="always"
       id="linearGradient3935-7-5">
      <stop
         style="stop-color:#b3b3b3;stop-opacity:1;"
         offset="0"
         id="stop3937-4-27" />
      <stop
         style="stop-color:#b3b3b3;stop-opacity:0;"
         offset="1"
         id="stop3939-6-0" />
    </linearGradient>
  </defs>
  <sodipodi:namedview
     id="base"
     pagecolor="#ffffff"
     bordercolor="#666666"
     borderopacity="1.0"
     inkscape:pageopacity="0.0"
     inkscape:pageshadow="2"
     inkscape:zoom="0.49497475"
     inkscape:cx="325.18345"
     inkscape:cy="748.09643"
     inkscape:document-units="px"
     inkscape:current-layer="layer1"
     showgrid="false"
     inkscape:window-width="1300"
     inkscape:window-height="744"
     inkscape:window-x="66"
     inkscape:window-y="24"
     inkscape:window-maximized="1" />
  <metadata
     id="metadata7">
    <rdf:RDF>
      <cc:Work
         rdf:about="">
        <dc:format>image/svg+xml</dc:format>
        <dc:type
           rdf:resource="http://purl.org/dc/dcmitype/StillImage" />
        <dc:title></dc:title>
      </cc:Work>
    </rdf:RDF>
  </metadata>
  <g
     inkscape:label="Camada 1"
     inkscape:groupmode="layer"
     id="layer1">
    <g
       id="g4277"
       transform="matrix(0.65626962,0.53114105,-0.80367645,0.42057098,703.77378,-37.985601)"
       style="stroke:#bcbcbc;stroke-width:2.38556576;stroke-miterlimit:4;stroke-opacity:1;stroke-dasharray:none">
      <path
         inkscape:connector-curvature="0"
         id="path4047"
         d="m 131.31568,489.41404 0,399.30759"
         style="fill:none;stroke:#bcbcbc;stroke-width:2.38556576;stroke-linecap:butt;stroke-linejoin:miter;stroke-miterlimit:4;stroke-opacity:1;stroke-dasharray:none" />
      <path
         inkscape:connector-curvature="0"
         id="path4047-7"
         d="m 151.28106,489.41404 0,399.30759"
         style="fill:none;stroke:#bcbcbc;stroke-width:2.38556576;stroke-linecap:butt;stroke-linejoin:miter;stroke-miterlimit:4;stroke-opacity:1;stroke-dasharray:none" />
      <path
         inkscape:connector-curvature="0"
         id="path4047-2"
         d="m 171.24644,489.41404 0,399.30759"
         style="fill:none;stroke:#bcbcbc;stroke-width:2.38556576;stroke-linecap:butt;stroke-linejoin:miter;stroke-miterlimit:4;stroke-opacity:1;stroke-dasharray:none" />
      <path
         inkscape:connector-curvature="0"
         id="path4047-7-6"
         d="m 191.2118,489.41404 0,399.30759"
         style="fill:none;stroke:#bcbcbc;stroke-width:2.38556576;stroke-linecap:butt;stroke-linejoin:miter;stroke-miterlimit:4;stroke-opacity:1;stroke-dasharray:none" />
      <path
         inkscape:connector-curvature="0"
         id="path4047-6"
         d="m 211.17719,489.41404 0,399.30759"
         style="fill:none;stroke:#bcbcbc;stroke-width:2.38556576;stroke-linecap:butt;stroke-linejoin:miter;stroke-miterlimit:4;stroke-opacity:1;stroke-dasharray:none" />
      <path
         inkscape:connector-curvature="0"
         id="path4047-7-0"
         d="m 231.14257,489.41404 0,399.30759"
         style="fill:none;stroke:#bcbcbc;stroke-width:2.38556576;stroke-linecap:butt;stroke-linejoin:miter;stroke-miterlimit:4;stroke-opacity:1;stroke-dasharray:none" />
      <path
         inkscape:connector-curvature="0"
         id="path4047-2-6"
         d="m 251.10795,489.41404 0,399.30759"
         style="fill:none;stroke:#bcbcbc;stroke-width:2.38556576;stroke-linecap:butt;stroke-linejoin:miter;stroke-miterlimit:4;stroke-opacity:1;stroke-dasharray:none" />
      <path
         inkscape:connector-curvature="0"
         id="path4047-7-6-8"
         d="m 271.07333,489.41404 0,399.30759"
         style="fill:none;stroke:#bcbcbc;stroke-width:2.38556576;stroke-linecap:butt;stroke-linejoin:miter;stroke-miterlimit:4;stroke-opacity:1;stroke-dasharray:none" />
      <path
         inkscape:connector-curvature="0"
         id="path4047-3"
         d="m 291.03871,489.41404 0,399.30759"
         style="fill:none;stroke:#bcbcbc;stroke-width:2.38556576;stroke-linecap:butt;stroke-linejoin:miter;stroke-miterlimit:4;stroke-opacity:1;stroke-dasharray:none" />
      <path
         inkscape:connector-curvature="0"
         id="path4047-7-2"
         d="m 311.00408,489.41404 0,399.30759"
         style="fill:none;stroke:#bcbcbc;stroke-width:2.38556576;stroke-linecap:butt;stroke-linejoin:miter;stroke-miterlimit:4;stroke-opacity:1;stroke-dasharray:none" />
      <path
         inkscape:connector-curvature="0"
         id="path4047-2-4"
         d="m 330.96948,489.41404 0,399.30759"
         style="fill:none;stroke:#bcbcbc;stroke-width:2.38556576;stroke-linecap:butt;stroke-linejoin:miter;stroke-miterlimit:4;stroke-opacity:1;stroke-dasharray:none" />
      <path
         inkscape:connector-curvature="0"
         id="path4047-7-6-0"
         d="m 350.93481,489.41404 0,399.30759"
         style="fill:none;stroke:#bcbcbc;stroke-width:2.38556576;stroke-linecap:butt;stroke-linejoin:miter;stroke-miterlimit:4;stroke-opacity:1;stroke-dasharray:none" />
      <path
         inkscape:connector-curvature="0"
         id="path4047-6-4"
         d="m 370.90021,489.41404 0,399.30759"
         style="fill:none;stroke:#bcbcbc;stroke-width:2.38556576;stroke-linecap:butt;stroke-linejoin:miter;stroke-miterlimit:4;stroke-opacity:1;stroke-dasharray:none" />
      <path
         inkscape:connector-curvature="0"
         id="path4047-7-0-2"
         d="m 390.86559,489.41404 0,399.30759"
         style="fill:none;stroke:#bcbcbc;stroke-width:2.38556576;stroke-linecap:butt;stroke-linejoin:miter;stroke-miterlimit:4;stroke-opacity:1;stroke-dasharray:none" />
      <path
         inkscape:connector-curvature="0"
         id="path4047-2-6-8"
         d="m 410.83098,489.41404 0,399.30759"
         style="fill:none;stroke:#bcbcbc;stroke-width:2.38556576;stroke-linecap:butt;stroke-linejoin:miter;stroke-miterlimit:4;stroke-opacity:1;stroke-dasharray:none" />
      <path
         inkscape:connector-curvature="0"
         id="path4047-7-6-8-4"
         d="m 430.79634,489.41404 0,399.30759"
         style="fill:none;stroke:#bcbcbc;stroke-width:2.38556576;stroke-linecap:butt;stroke-linejoin:miter;stroke-miterlimit:4;stroke-opacity:1;stroke-dasharray:none" />
      <path
         inkscape:connector-curvature="0"
         id="path4047-6-4-4"
         d="m 450.76172,489.41404 0,399.30759"
         style="fill:none;stroke:#bcbcbc;stroke-width:2.38556576;stroke-linecap:butt;stroke-linejoin:miter;stroke-miterlimit:4;stroke-opacity:1;stroke-dasharray:none" />
      <path
         inkscape:connector-curvature="0"
         id="path4047-7-0-2-6"
         d="m 470.72711,489.41404 0,399.30759"
         style="fill:none;stroke:#bcbcbc;stroke-width:2.38556576;stroke-linecap:butt;stroke-linejoin:miter;stroke-miterlimit:4;stroke-opacity:1;stroke-dasharray:none" />
      <path
         inkscape:connector-curvature="0"
         id="path4047-2-6-8-2"
         d="m 490.69247,489.41404 0,399.30759"
         style="fill:none;stroke:#bcbcbc;stroke-width:2.38556576;stroke-linecap:butt;stroke-linejoin:miter;stroke-miterlimit:4;stroke-opacity:1;stroke-dasharray:none" />
      <path
         inkscape:connector-curvature="0"
         id="path4047-7-6-8-4-7"
         d="m 510.65786,489.41404 0,399.30759"
         style="fill:none;stroke:#bcbcbc;stroke-width:2.38556576;stroke-linecap:butt;stroke-linejoin:miter;stroke-miterlimit:4;stroke-opacity:1;stroke-dasharray:none" />
      <path
         inkscape:connector-curvature="0"
         id="path4047-7-6-8-4-7-8"
         d="m 530.62327,489.41404 0,399.30759"
         style="fill:none;stroke:#bcbcbc;stroke-width:2.38556576;stroke-linecap:butt;stroke-linejoin:miter;stroke-miterlimit:4;stroke-opacity:1;stroke-dasharray:none" />
      <path
         inkscape:connector-curvature="0"
         id="path4047-1"
         d="m 131.31568,888.72163 399.30759,0"
         style="fill:none;stroke:#bcbcbc;stroke-width:2.38556576;stroke-linecap:butt;stroke-linejoin:miter;stroke-miterlimit:4;stroke-opacity:1;stroke-dasharray:none" />
      <path
         inkscape:connector-curvature="0"
         id="path4047-7-3"
         d="m 131.31568,868.75625 399.30759,0"
         style="fill:none;stroke:#bcbcbc;stroke-width:2.38556576;stroke-linecap:butt;stroke-linejoin:miter;stroke-miterlimit:4;stroke-opacity:1;stroke-dasharray:none" />
      <path
         inkscape:connector-curvature="0"
         id="path4047-2-45"
         d="m 131.31568,848.79087 399.30759,0"
         style="fill:none;stroke:#bcbcbc;stroke-width:2.38556576;stroke-linecap:butt;stroke-linejoin:miter;stroke-miterlimit:4;stroke-opacity:1;stroke-dasharray:none" />
      <path
         inkscape:connector-curvature="0"
         id="path4047-7-6-4"
         d="m 131.31568,828.82551 399.30759,0"
         style="fill:none;stroke:#bcbcbc;stroke-width:2.38556576;stroke-linecap:butt;stroke-linejoin:miter;stroke-miterlimit:4;stroke-opacity:1;stroke-dasharray:none" />
      <path
         inkscape:connector-curvature="0"
         id="path4047-6-1"
         d="m 131.31568,808.86012 399.30759,0"
         style="fill:none;stroke:#bcbcbc;stroke-width:2.38556576;stroke-linecap:butt;stroke-linejoin:miter;stroke-miterlimit:4;stroke-opacity:1;stroke-dasharray:none" />
      <path
         inkscape:connector-curvature="0"
         id="path4047-7-0-22"
         d="m 131.31568,788.89474 399.30759,0"
         style="fill:none;stroke:#bcbcbc;stroke-width:2.38556576;stroke-linecap:butt;stroke-linejoin:miter;stroke-miterlimit:4;stroke-opacity:1;stroke-dasharray:none" />
      <path
         inkscape:connector-curvature="0"
         id="path4047-2-6-7"
         d="m 131.31568,768.92936 399.30759,0"
         style="fill:none;stroke:#bcbcbc;stroke-width:2.38556576;stroke-linecap:butt;stroke-linejoin:miter;stroke-miterlimit:4;stroke-opacity:1;stroke-dasharray:none" />
      <path
         inkscape:connector-curvature="0"
         id="path4047-7-6-8-5"
         d="m 131.31568,748.96398 399.30759,0"
         style="fill:none;stroke:#bcbcbc;stroke-width:2.38556576;stroke-linecap:butt;stroke-linejoin:miter;stroke-miterlimit:4;stroke-opacity:1;stroke-dasharray:none" />
      <path
         inkscape:connector-curvature="0"
         id="path4047-3-8"
         d="m 131.31568,728.9986 399.30759,0"
         style="fill:none;stroke:#bcbcbc;stroke-width:2.38556576;stroke-linecap:butt;stroke-linejoin:miter;stroke-miterlimit:4;stroke-opacity:1;stroke-dasharray:none" />
      <path
         inkscape:connector-curvature="0"
         id="path4047-7-2-5"
         d="m 131.31568,709.03323 399.30759,0"
         style="fill:none;stroke:#bcbcbc;stroke-width:2.38556576;stroke-linecap:butt;stroke-linejoin:miter;stroke-miterlimit:4;stroke-opacity:1;stroke-dasharray:none" />
      <path
         inkscape:connector-curvature="0"
         id="path4047-2-4-2"
         d="m 131.31568,689.06783 399.30759,0"
         style="fill:none;stroke:#bcbcbc;stroke-width:2.38556576;stroke-linecap:butt;stroke-linejoin:miter;stroke-miterlimit:4;stroke-opacity:1;stroke-dasharray:none" />
      <path
         inkscape:connector-curvature="0"
         id="path4047-7-6-0-9"
         d="m 131.31568,669.1025 399.30759,0"
         style="fill:none;stroke:#bcbcbc;stroke-width:2.38556576;stroke-linecap:butt;stroke-linejoin:miter;stroke-miterlimit:4;stroke-opacity:1;stroke-dasharray:none" />
      <path
         inkscape:connector-curvature="0"
         id="path4047-6-4-2"
         d="m 131.31568,649.1371 399.30759,0"
         style="fill:none;stroke:#bcbcbc;stroke-width:2.38556576;stroke-linecap:butt;stroke-linejoin:miter;stroke-miterlimit:4;stroke-opacity:1;stroke-dasharray:none" />
      <path
         inkscape:connector-curvature="0"
         id="path4047-7-0-2-9"
         d="m 131.31568,629.17172 399.30759,0"
         style="fill:none;stroke:#bcbcbc;stroke-width:2.38556576;stroke-linecap:butt;stroke-linejoin:miter;stroke-miterlimit:4;stroke-opacity:1;stroke-dasharray:none" />
      <path
         inkscape:connector-curvature="0"
         id="path4047-2-6-8-0"
         d="m 131.31568,609.20633 399.30759,0"
         style="fill:none;stroke:#bcbcbc;stroke-width:2.38556576;stroke-linecap:butt;stroke-linejoin:miter;stroke-miterlimit:4;stroke-opacity:1;stroke-dasharray:none" />
      <path
         inkscape:connector-curvature="0"
         id="path4047-7-6-8-4-8"
         d="m 131.31568,589.24097 399.30759,0"
         style="fill:none;stroke:#bcbcbc;stroke-width:2.38556576;stroke-linecap:butt;stroke-linejoin:miter;stroke-miterlimit:4;stroke-opacity:1;stroke-dasharray:none" />
      <path
         inkscape:connector-curvature="0"
         id="path4047-6-4-4-6"
         d="m 131.31568,569.27559 399.30759,0"
         style="fill:none;stroke:#bcbcbc;stroke-width:2.38556576;stroke-linecap:butt;stroke-linejoin:miter;stroke-miterlimit:4;stroke-opacity:1;stroke-dasharray:none" />
      <path
         inkscape:connector-curvature="0"
         id="path4047-7-0-2-6-2"
         d="m 131.31568,549.3102 399.30759,0"
         style="fill:none;stroke:#bcbcbc;stroke-width:2.38556576;stroke-linecap:butt;stroke-linejoin:miter;stroke-miterlimit:4;stroke-opacity:1;stroke-dasharray:none" />
      <path
         inkscape:connector-curvature="0"
         id="path4047-2-6-8-2-0"
         d="m 131.31568,529.34484 399.30759,0"
         style="fill:none;stroke:#bcbcbc;stroke-width:2.38556576;stroke-linecap:butt;stroke-linejoin:miter;stroke-miterlimit:4;stroke-opacity:1;stroke-dasharray:none" />
      <path
         inkscape:connector-curvature="0"
         id="path4047-7-6-8-4-7-2"
         d="m 131.31568,509.37945 399.30759,0"
         style="fill:none;stroke:#bcbcbc;stroke-width:2.38556576;stroke-linecap:butt;stroke-linejoin:miter;stroke-miterlimit:4;stroke-opacity:1;stroke-dasharray:none" />
      <path
         inkscape:connector-curvature="0"
         id="path4047-7-6-8-4-7-8-3"
         d="m 131.31568,489.41404 399.30759,0"
         style="fill:none;stroke:#bcbcbc;stroke-width:2.38556576;stroke-linecap:butt;stroke-linejoin:miter;stroke-miterlimit:4;stroke-opacity:1;stroke-dasharray:none" />
    </g>
    <path
       style="opacity:0.48666669;fill:#000000;fill-opacity:1;stroke:none;filter:url(#filter4481)"
       d="m 68.965213,331.0633 18.940363,-8.71257 17.677674,-9.59645 20.07678,-9.09137 L 180,276.05857 l 19.10715,-10.35714 17.84541,-6.86404 18.05648,-15.15229 18.30902,-6.81853 19.69797,-55.5584 16.98397,-7.66032 19.28572,-12.14286 13.92857,32.14286 14.64286,-1.42857 2.77597,2.97849 4.94724,-6.32671 13.125,1.91965 22.14446,-9.48254 16.03617,-7.44987 8.08122,6.18718 8.46002,9.72272 16.03706,7.62965 14.64286,11.42857 13.57143,11.60716 12.67857,11.07142 14.28584,12.55891 16.66752,11.11168 11.86929,11.36421 14.39467,10.60661 15.65737,12.37437 13.76333,10.85913 14.2684,10.60661 c 0,0 12.62691,12.87944 11.99556,12.87944 -0.63134,0 15.5311,10.6066 15.5311,10.6066 l 12.75317,10.76444 16.67089,13.58943 10.71429,7.85715 18.39285,13.39285 -17.85714,7.67857 -20.89286,8.57143 L 600,385.61215 l -18.57142,7.05357 -3.21429,-1.42857 -9.73214,11.42857 -10.98215,-12.94643 -11.99532,29.10101 -18.36182,8.22042 -19.14009,20.94774 -18.43529,9.21764 -18.30901,7.57614 -18.75847,8.86562 -18.23837,9.4434 -18.68782,7.57614 -18.43095,8.60546 -18.30357,6.60714 -17.76786,10.98215 -17.91293,9.7288 -20.39246,6.7554 L 311.78063,522.1084 296.62835,509.35522 281.60233,492.94024 266.26064,481.38662 254.375,469.36215 239.46429,458.02286 227.85715,417.755 l -9.46429,-5.53571 -38.75,-1.25 -10.35714,-9.19643 -15.08929,-7.41071 L 140.0547,383.97004 124.64286,371.77286 112.27551,360.8628 95.860526,353.66546 82.349733,342.04871 z"
       id="path3933-7-1"
       inkscape:connector-curvature="0" />
    <path
       style="fill:none;stroke:#000000;stroke-width:3;stroke-linecap:butt;stroke-linejoin:miter;stroke-miterlimit:4;stroke-opacity:1;stroke-dasharray:none"
       d="M 168.57143,355.93361 76.071429,405.21933 338.03572,617.36218 658.66529,449.68469 553.29375,364.07427"
       id="path4485"
       inkscape:connector-curvature="0" />
    <g
       id="g4404"
       transform="translate(-14.285714,92.571429)">
      <path
         inkscape:connector-curvature="0"
         id="path3933-7-8"
         d="m 86.10807,194.77758 18.94036,-8.71257 17.67767,-9.59645 20.07678,-9.09137 54.33997,-27.60434 19.10715,-10.35714 17.84541,-6.86404 18.05648,-15.15229 18.30902,-6.81853 19.69797,-55.558387 16.98397,-7.66032 19.28572,-12.14286 13.92857,32.14286 14.64286,-1.42857 2.77597,2.97849 4.94724,-6.32671 13.125,1.91965 22.14446,-9.48254 16.03617,-7.44987 8.08122,6.18718 8.46002,9.72272 16.03706,7.62965 14.64286,11.42857 13.57143,11.60715 12.67857,11.07142 14.28584,12.558907 16.66752,11.11168 11.86929,11.36421 14.39467,10.60661 15.65737,12.37437 13.76333,10.85913 14.2684,10.60661 c 0,0 12.62691,12.87944 11.99556,12.87944 -0.63134,0 15.5311,10.6066 15.5311,10.6066 l 12.75317,10.76444 16.67089,13.58943 10.71429,7.85715 18.39285,13.39285 -17.85714,7.67857 -20.89286,8.57143 -18.57143,-10.71428 -18.57142,7.05357 -3.21429,-1.42857 -9.73214,11.42857 -10.98215,-12.94643 -11.99532,29.10101 -18.36182,8.22042 -19.14009,20.94774 -18.43529,9.21764 -18.30901,7.57614 -18.75847,8.86562 -18.23837,9.4434 -18.68782,7.57614 -18.43095,8.60546 -18.30357,6.60714 -17.76786,10.98215 -17.91293,9.7288 -20.39246,6.7554 L 328.92348,385.82268 313.7712,373.0695 298.74518,356.65452 283.40349,345.1009 271.51785,333.07643 256.60714,321.73714 245,281.46928 l -9.46429,-5.53571 -38.75,-1.25 -10.35714,-9.19643 -15.08929,-7.41071 -14.14173,-10.39211 -15.41184,-12.19718 -12.36735,-10.91006 -16.41498,-7.19734 -13.510788,-11.61675 z"
         style="fill:#ffffff;fill-opacity:1;stroke:none" />
      <path
         inkscape:connector-curvature="0"
         id="path3933"
         d="m 86.10807,194.77762 18.94036,-8.71257 17.67767,-9.59645 20.07678,-9.09137 54.33997,-27.60434 19.10715,-10.35714 17.84541,-6.86404 18.05648,-15.15229 18.30902,-6.81853 19.69797,-55.55839 16.98397,-7.66032 19.28572,-12.14286 13.92857,32.14286 L 355,55.93361 l 2.77597,2.97849 4.94724,-6.32671 13.125,1.91965 22.14446,-9.48254 16.03617,-7.44987 8.08122,6.18718 8.46002,9.72272 16.03706,7.62965 L 461.25,72.54075 474.82143,84.1479 487.5,95.21932 l 14.28584,12.55891 16.66752,11.11168 11.86929,11.36421 14.39467,10.60661 15.65737,12.37437 13.76333,10.85913 14.2684,10.60661 c 0,0 12.62691,12.87944 11.99556,12.87944 -0.63134,0 15.5311,10.6066 15.5311,10.6066 l 12.75317,10.76444 16.67089,13.58943 10.71429,7.85715 18.39285,13.39285 -17.85714,7.67857 -20.89286,8.57143 -18.57143,-10.71428 -18.57142,7.05357 -3.21429,-1.42857 -9.73214,11.42857 -10.98215,-12.94643 -11.99532,29.10101 -18.36182,8.22042 -19.14009,20.94774 -18.43529,9.21764 -18.30901,7.57614 -18.75847,8.86562 -18.23837,9.4434 -18.68782,7.57614 -18.43095,8.60546 -18.30357,6.60714 -17.76786,10.98215 -17.91293,9.7288 -20.39246,6.7554 L 328.92348,385.82272 313.7712,373.06954 298.74518,356.65456 283.40349,345.10094 271.51785,333.07647 256.60714,321.73718 245,281.46932 l -9.46429,-5.53571 -38.75,-1.25 -10.35714,-9.19643 -15.08929,-7.41071 -14.14173,-10.39211 -15.41184,-12.19718 -12.36735,-10.91006 -16.41498,-7.19734 -13.510788,-11.61675 z"
         style="fill:url(#radialGradient4471);fill-opacity:1;stroke:none" />
      <path
         inkscape:connector-curvature="0"
         id="path3933-8"
         d="m 86.10807,194.77762 18.94036,-8.71257 17.67767,-9.59645 20.07678,-9.09137 54.33997,-27.60434 19.10715,-10.35714 17.84541,-6.86404 18.05648,-15.15229 18.30902,-6.81853 19.69797,-55.55839 16.98397,-7.66032 19.28572,-12.14286 13.92857,32.14286 L 355,55.93361 l 2.77597,2.97849 4.94724,-6.32671 13.125,1.91965 22.14446,-9.48254 16.03617,-7.44987 8.08122,6.18718 8.46002,9.72272 16.03706,7.62965 L 461.25,72.54075 474.82143,84.1479 487.5,95.21932 l 14.28584,12.55891 16.66752,11.11168 11.86929,11.36421 14.39467,10.60661 15.65737,12.37437 13.76333,10.85913 14.2684,10.60661 c 0,0 12.62691,12.87944 11.99556,12.87944 -0.63134,0 15.5311,10.6066 15.5311,10.6066 l 12.75317,10.76444 16.67089,13.58943 10.71429,7.85715 18.39285,13.39285 -17.85714,7.67857 -20.89286,8.57143 -18.57143,-10.71428 -18.57142,7.05357 -3.21429,-1.42857 -9.73214,11.42857 -10.98215,-12.94643 -11.99532,29.10101 -18.36182,8.22042 -19.14009,20.94774 -18.43529,9.21764 -18.30901,7.57614 -18.75847,8.86562 -18.23837,9.4434 -18.68782,7.57614 -18.43095,8.60546 -18.30357,6.60714 -17.76786,10.98215 -17.91293,9.7288 -20.39246,6.7554 L 328.92348,385.82272 313.7712,373.06954 298.74518,356.65456 283.40349,345.10094 271.51785,333.07647 256.60714,321.73718 245,281.46932 l -9.46429,-5.53571 -38.75,-1.25 -10.35714,-9.19643 -15.08929,-7.41071 -14.14173,-10.39211 -15.41184,-12.19718 -12.36735,-10.91006 -16.41498,-7.19734 -13.510788,-11.61675 z"
         style="fill:url(#radialGradient4473);fill-opacity:1;stroke:none" />
      <path
         inkscape:connector-curvature="0"
         id="path3933-7"
         d="m 86.10807,194.77762 18.94036,-8.71257 17.67767,-9.59645 20.07678,-9.09137 54.33997,-27.60434 19.10715,-10.35714 17.84541,-6.86404 18.05648,-15.15229 18.30902,-6.81853 19.69797,-55.55839 16.98397,-7.66032 19.28572,-12.14286 13.92857,32.14286 L 355,55.93361 l 2.77597,2.97849 4.94724,-6.32671 13.125,1.91965 22.14446,-9.48254 16.03617,-7.44987 8.08122,6.18718 8.46002,9.72272 16.03706,7.62965 L 461.25,72.54075 474.82143,84.1479 487.5,95.21932 l 14.28584,12.55891 16.66752,11.11168 11.86929,11.36421 14.39467,10.60661 15.65737,12.37437 13.76333,10.85913 14.2684,10.60661 c 0,0 12.62691,12.87944 11.99556,12.87944 -0.63134,0 15.5311,10.6066 15.5311,10.6066 l 12.75317,10.76444 16.67089,13.58943 10.71429,7.85715 18.39285,13.39285 -17.85714,7.67857 -20.89286,8.57143 -18.57143,-10.71428 -18.57142,7.05357 -3.21429,-1.42857 -9.73214,11.42857 -10.98215,-12.94643 -11.99532,29.10101 -18.36182,8.22042 -19.14009,20.94774 -18.43529,9.21764 -18.30901,7.57614 -18.75847,8.86562 -18.23837,9.4434 -18.68782,7.57614 -18.43095,8.60546 -18.30357,6.60714 -17.76786,10.98215 -17.91293,9.7288 -20.39246,6.7554 L 328.92348,385.82272 313.7712,373.06954 298.74518,356.65456 283.40349,345.10094 271.51785,333.07647 256.60714,321.73718 245,281.46932 l -9.46429,-5.53571 -38.75,-1.25 -10.35714,-9.19643 -15.08929,-7.41071 -14.14173,-10.39211 -15.41184,-12.19718 -12.36735,-10.91006 -16.41498,-7.19734 -13.510788,-11.61675 z"
         style="fill:url(#radialGradient4475);fill-opacity:1;stroke:none" />
      <g
         transform="translate(4.2857143,-190)"
         id="g3842">
        <path
           style="fill:none;stroke:#666666;stroke-width:2;stroke-linecap:butt;stroke-linejoin:miter;stroke-miterlimit:4;stroke-opacity:1;stroke-dasharray:none"
           d="m 335.90671,586.83828 19.46148,-6.19229 17.35174,-9.35998 18.92185,-11.41567 18.29634,-6.88067 18.60909,-8.75722 19.23461,-7.81895 17.67082,-8.75721 17.98357,-8.75723 19.07823,-8.1317 18.13995,-9.06997 18.92185,-20.48564 18.76547,-8.9136 17.0453,-43.31697 18.92186,17.51444 18.29633,-7.66257 18.45271,11.8848 17.35806,-7.19342 21.73667,-9.38274"
           id="path2996"
           inkscape:connector-curvature="0" />
        <path
           style="fill:none;stroke:#666666;stroke-width:2;stroke-linecap:butt;stroke-linejoin:miter;stroke-miterlimit:4;stroke-opacity:1;stroke-dasharray:none"
           d="m 323.77333,575.19548 16.73254,-6.88068 18.92186,-9.53911 17.82719,-7.97533 18.92185,-7.97532 18.92185,-9.06998 18.60909,-8.28808 18.76547,-8.44446 17.51444,-8.60084 18.76547,-10.16463 18.45272,-8.60084 17.8272,-15.95065 18.76546,-3.90947 19.39099,-34.71613 17.98358,21.73667 17.51444,-20.79839 17.98357,3.28395 16.73254,-7.19343 18.29634,-10.79014"
           id="path2998"
           inkscape:connector-curvature="0" />
        <path
           style="fill:none;stroke:#666666;stroke-width:2;stroke-linecap:butt;stroke-linejoin:miter;stroke-miterlimit:4;stroke-opacity:1;stroke-dasharray:none"
           d="m 308.60457,562.84154 17.8272,-4.53499 19.07823,-11.57204 17.51444,-9.06997 18.92185,-8.13171 17.51444,-7.19343 19.2346,-9.06997 18.92186,-8.28809 17.98357,-10.16463 18.13996,-10.00825 19.54736,-9.06998 17.98358,-21.58029 17.98358,-6.88067 18.13995,-36.43629 12.04117,11.41566 6.88068,7.50619 18.92185,-14.54324 20.0165,13.91772 17.51444,-8.75722 17.8272,-7.50619"
           id="path3000"
           inkscape:connector-curvature="0" />
        <path
           style="fill:none;stroke:#666666;stroke-width:2;stroke-linecap:butt;stroke-linejoin:miter;stroke-miterlimit:4;stroke-opacity:1;stroke-dasharray:none"
           d="m 294.21771,546.73451 19.07823,-4.22223 17.20168,-10.79014 19.23461,-5.9424 17.98358,-9.6955 18.92184,-5.9424 18.13996,-9.22635 18.76548,-8.60084 19.07822,-9.85188 16.57617,-9.85187 19.54736,-9.85187 18.29634,-18.13995 18.13995,-7.66257 19.54737,-22.04943 25.02062,6.56792 9.85187,-6.41154 19.23461,1.25103 16.26341,-7.50619 18.29633,-9.22635"
           id="path3002"
           inkscape:connector-curvature="0" />
        <path
           style="fill:none;stroke:#666666;stroke-width:2;stroke-linecap:butt;stroke-linejoin:miter;stroke-miterlimit:4;stroke-opacity:1;stroke-dasharray:none"
           d="m 279.36172,534.69333 20.64202,1.09466 17.04529,-14.54324 18.76548,-5.00413 17.35806,-10.321 17.67081,-5.31689 20.17289,-10.79014 17.67081,-7.19344 19.39099,-12.66669 17.8272,-11.57204 18.76547,-11.57204 17.82719,-26.11528 18.6091,-6.41153 17.98358,-20.48564 19.54736,18.13996 16.88892,-10.4774 20.95478,5.00413 16.26341,-8.44446 18.76546,-9.22636"
           id="path3004"
           inkscape:connector-curvature="0" />
        <path
           style="fill:none;stroke:#666666;stroke-width:2;stroke-linecap:butt;stroke-linejoin:miter;stroke-miterlimit:4;stroke-opacity:1;stroke-dasharray:none"
           d="m 267.32054,523.27768 17.98357,-2.97121 17.20169,-12.66669 18.60909,-4.53499 17.98357,-9.53911 19.54737,-6.09878 16.73255,-10.16463 19.54736,-7.97532 18.13996,-10.63377 18.92185,-13.76135 17.98357,-11.8848 18.13995,-19.39098 18.29634,-8.75722 31.74492,-5.9424 22.9877,-2.1893 17.51444,-2.18931 19.39098,-8.9136 18.76548,-8.75722"
           id="path3006"
           inkscape:connector-curvature="0" />
        <path
           style="fill:none;stroke:#666666;stroke-width:2;stroke-linecap:butt;stroke-linejoin:miter;stroke-miterlimit:4;stroke-opacity:1;stroke-dasharray:none"
           d="m 252.62092,511.54926 18.92185,1.40741 16.73255,-13.60497 19.07822,-5.9424 18.29634,-9.85187 17.98358,-6.88068 18.13995,-10.94652 18.45271,-7.19343 18.70925,-16.11155 18.46629,-16.14418 18.46629,-13.15862 19.01918,-28.86049 20.34609,11.72112 16.14419,-6.41345 19.68263,3.53846 16.25476,-6.6346 19.45487,-4.56236 18.45272,-7.81894 20.0165,-9.38274"
           id="path3008"
           inkscape:connector-curvature="0" />
        <path
           style="fill:none;stroke:#666666;stroke-width:2;stroke-linecap:butt;stroke-linejoin:miter;stroke-miterlimit:4;stroke-opacity:1;stroke-dasharray:none"
           d="m 239.48509,470.89073 17.35806,6.41154 16.57617,-17.51444 19.86012,5.1605 16.41979,-13.13582 20.0165,0.93827 16.88892,-12.04118 20.0165,-1.72017 18.92186,-13.44858 16.88891,-14.54324 20.48565,-14.07411 17.51443,-8.44445 24.08236,-1.25104 12.82307,0.62552 17.20168,-4.06585 20.64202,-7.19343 17.10962,-6.9284 20.34609,-7.96152 17.24995,-7.5192"
           id="path3010"
           inkscape:connector-curvature="0" />
        <path
           style="fill:none;stroke:#666666;stroke-width:2;stroke-linecap:butt;stroke-linejoin:miter;stroke-miterlimit:4;stroke-opacity:1;stroke-dasharray:none"
           d="m 230.85894,466.08864 21.23071,8.18267 9.28844,-13.04804 24.76915,-0.66346 11.49997,-12.38458 20.34609,2.21153 15.48073,-15.92303 20.12494,-3.7596 16.36533,-25.87492 19.01917,-19.24033 19.01918,-3.3173 19.01918,-13.49035 21.45186,15.48073 14.1538,-3.7596 20.34609,-5.97114 17.0288,-7.29806 18.57687,-7.74036 17.9134,-8.40382 19.90379,-8.18267"
           id="path3012"
           inkscape:connector-curvature="0" />
        <path
           style="fill:none;stroke:#666666;stroke-width:2;stroke-linecap:butt;stroke-linejoin:miter;stroke-miterlimit:4;stroke-opacity:1;stroke-dasharray:none"
           d="m 192.59944,464.54057 34.72106,-16.80765 19.46148,-27.20184 17.02879,6.19229 19.46148,-28.30761 17.69226,7.29806 19.68263,-25.21146 19.01918,10.39419 16.36533,-18.35571 21.2307,-0.88461 15.92304,3.09614 30.07683,-6.19229 15.03842,7.29806 11.05766,-3.7596 19.90378,-6.6346 16.5865,-8.62498 19.68263,-7.51921 18.35571,-9.28843 16.80765,-9.73074"
           id="path3014"
           inkscape:connector-curvature="0"
           sodipodi:nodetypes="ccccccccccccccccccc" />
        <path
           style="fill:none;stroke:#666666;stroke-width:2;stroke-linecap:butt;stroke-linejoin:miter;stroke-miterlimit:4;stroke-opacity:1;stroke-dasharray:none"
           d="m 193.04175,464.54057 c 0.55288,0 23.44223,0.44231 23.44223,0.44231 l 10.94709,-19.01918 21.78359,-14.1538 17.0288,-3.3173 22.55762,-4.64422 16.58649,-19.01917 19.24033,-2.43269 8.18267,-14.81726 9.50958,-21.23071 17.91341,-13.93265 21.00955,9.50959 17.24995,-8.84613 5.34628,3.34201 16.41979,-7.81895 17.98357,-4.84775 19.54737,-9.53911 19.23461,-6.88068 17.20167,-9.53911 20.32926,-8.1317"
           id="path3016"
           inkscape:connector-curvature="0" />
        <path
           style="fill:none;stroke:#666666;stroke-width:2;stroke-linecap:butt;stroke-linejoin:miter;stroke-miterlimit:4;stroke-opacity:1;stroke-dasharray:none"
           d="m 181.15575,455.72198 19.07823,-5.9424 19.07823,-15.63789 17.82719,-5.62964 17.51445,-16.57616 19.07823,-5.31689 17.51443,-19.39099 20.32927,-4.37861 16.57616,-20.64201 19.07823,-11.8848 17.51443,1.25103 19.07824,-7.19343 8.03563,-1.91619 13.7115,-10.8365 19.68263,-1.99038 17.0288,-9.28843 20.35641,-6.14963 17.98358,-9.38274 17.0453,-7.19343"
           id="path3018"
           inkscape:connector-curvature="0" />
        <path
           style="fill:none;stroke:#666666;stroke-width:2;stroke-linecap:butt;stroke-linejoin:miter;stroke-miterlimit:4;stroke-opacity:1;stroke-dasharray:none"
           d="m 167.08165,447.90304 16.88893,-4.22223 19.07822,-11.25929 19.23461,-7.50619 16.88892,-9.69549 20.0165,-6.72429 17.20169,-12.82307 17.67082,-11.41566 18.92184,-22.04943 19.86012,-30.18113 17.98358,-1.25104 18.92185,-17.67082 7.66257,8.9136 13.60497,-4.69137 19.54736,0.93828 19.39099,-9.85187 16.57616,-5.9424 18.92186,-7.81895 18.76546,-10.00825"
           id="path3020"
           inkscape:connector-curvature="0" />
        <path
           style="fill:none;stroke:#666666;stroke-width:2;stroke-linecap:butt;stroke-linejoin:miter;stroke-miterlimit:4;stroke-opacity:1;stroke-dasharray:none"
           d="m 153.47669,437.73841 18.92185,-6.7243 16.57616,-10.47739 19.86012,-6.88067 17.04531,-10.47739 19.70374,-6.88067 17.67082,-11.72842 17.98357,-7.97532 20.0165,-15.32514 18.76548,-22.83132 18.92184,-10.00825 15.79427,-16.88893 10.63378,-1.56378 14.38686,-18.45272 17.20167,11.8848 17.8272,-8.1317 19.07823,-4.69137 18.76547,-7.50619 18.76548,-8.44446"
           id="path3022"
           inkscape:connector-curvature="0" />
        <path
           style="fill:none;stroke:#666666;stroke-width:2;stroke-linecap:butt;stroke-linejoin:miter;stroke-miterlimit:4;stroke-opacity:1;stroke-dasharray:none"
           d="m 137.36965,425.69723 21.26754,-3.12758 16.57616,-11.25928 20.01651,-7.19343 16.88892,-10.32101 19.07823,-7.81895 17.20168,-11.25928 20.32926,-7.81895 16.88892,-15.32513 19.07823,-22.83132 18.76547,-10.32101 16.88892,-39.72025 20.32926,24.39511 17.8272,-12.82307 5.62964,1.87655 16.26341,-10.00825 20.95478,-4.06585 20.32926,-7.81895 16.26341,-7.81894"
           id="path3024"
           inkscape:connector-curvature="0" />
        <path
           style="fill:none;stroke:#666666;stroke-width:2;stroke-linecap:butt;stroke-linejoin:miter;stroke-miterlimit:4;stroke-opacity:1;stroke-dasharray:none"
           d="m 125.1721,414.43795 17.8272,-5.9424 19.07823,-10.94653 18.45271,-6.56791 16.57616,-10.32101 19.07823,-8.1317 19.39099,-12.82308 17.51443,-6.25516 18.13996,-12.19755 20.0165,-15.01237 16.88893,-11.8848 19.39099,-28.14821 24.08235,3.75309 12.51031,-8.75722 6.61925,0.44378 15.14899,-11.49997 17.24995,-2.65383 19.46148,-9.28844 19.90379,-6.6346"
           id="path3026"
           inkscape:connector-curvature="0" />
        <path
           style="fill:none;stroke:#666666;stroke-width:2;stroke-linecap:butt;stroke-linejoin:miter;stroke-miterlimit:4;stroke-opacity:1;stroke-dasharray:none"
           d="m 108.78238,407.04074 19.01918,-5.74999 17.91341,-11.05766 20.34609,-9.06728 18.57687,-10.17304 16.14418,-8.40383 20.56725,-10.17304 17.4711,-8.18267 19.24032,-12.38458 17.91341,-14.37496 17.69226,-11.27881 19.24033,-45.3364 20.34609,8.40382 16.80764,-22.99993 13.26919,23.44223 7.51921,-8.84612 20.01098,-1.54843 17.0453,-9.53911 19.39099,-6.72429"
           id="path3028"
           inkscape:connector-curvature="0" />
        <path
           style="fill:none;stroke:#666666;stroke-width:2;stroke-linecap:butt;stroke-linejoin:miter;stroke-miterlimit:4;stroke-opacity:1;stroke-dasharray:none"
           d="m 94.83459,395.67248 20.64202,-8.75723 18.13995,-8.75721 17.51444,-8.44447 18.45272,-9.69549 17.51443,-8.44446 19.70375,-9.38273 19.70374,-10.32101 17.20168,-7.81895 18.45272,-13.13583 18.13995,-6.88067 18.45271,-39.72025 11.8848,-5.00413 16.88893,5.31689 9.06997,-16.57617 14.69962,3.75309 6.56792,-6.72429 18.60908,2.65844 23.12581,-8.55254 18.79802,-5.30768"
           id="path3030"
           inkscape:connector-curvature="0" />
        <path
           style="fill:none;stroke:#666666;stroke-width:2;stroke-linecap:butt;stroke-linejoin:miter;stroke-miterlimit:4;stroke-opacity:1;stroke-dasharray:none"
           d="m 81.58054,384.70427 18.57687,-8.40383 18.13456,-9.73073 19.01917,-8.84614 19.90379,-9.73073 17.24995,-8.40382 18.57687,-9.73075 17.24995,-9.28843 20.34609,-8.40382 16.36534,-14.15381 19.46148,-7.0769 19.46148,-55.7306 16.36533,-8.40382 19.46149,-11.05766 15.03841,31.84606 14.15381,-1.76923 2.65384,3.98076 4.86537,-6.6346 11.94226,1.76923 21.23071,-9.28844 19.01918,-8.40381"
           id="path3032"
           inkscape:connector-curvature="0" />
        <path
           style="fill:none;stroke:#666666;stroke-width:2;stroke-linecap:butt;stroke-linejoin:miter;stroke-miterlimit:4;stroke-opacity:1;stroke-dasharray:none"
           d="m 81.138237,384.92542 13.932651,10.61535 13.932652,11.72112 16.36533,7.29806 12.82689,11.27881 15.48072,12.16343 13.26919,9.73073 15.03842,7.74036 10.61536,9.28844 24.32684,0.22116 14.37496,1.10576 8.84613,4.86537 12.38458,40.69219 14.81726,11.72112 12.38458,11.94227 14.81726,11.05766 14.15381,16.14418 15.48072,12.82688 11.72112,11.49997"
           id="path3034"
           inkscape:connector-curvature="0" />
        <path
           style="fill:none;stroke:#666666;stroke-width:2;stroke-linecap:butt;stroke-linejoin:miter;stroke-miterlimit:4;stroke-opacity:1;stroke-dasharray:none"
           d="m 355.58934,580.20369 -15.70187,-12.16343 -12.60573,-9.95189 -14.15381,-15.92304 -12.60573,-6.63459 -15.25957,-15.48072 -13.7115,-7.0769 -14.59611,-36.04797 -4.86537,-2.875 -17.02879,-7.0769 -7.07691,-21.45185 -1.32691,2.21152 -26.42306,2.35942 -14.26913,-7.44594 -14.15381,-11.05766 -13.26919,-9.28843 -15.92303,-13.7115 -14.59611,-8.40382 -14.1538,-12.82689 -13.7115,-11.05766"
           id="path3036"
           inkscape:connector-curvature="0" />
        <path
           style="fill:none;stroke:#666666;stroke-width:2;stroke-linecap:butt;stroke-linejoin:miter;stroke-miterlimit:4;stroke-opacity:1;stroke-dasharray:none"
           d="m 117.97867,366.27324 15.01238,11.8848 14.38686,11.25928 14.0741,8.75722 14.0741,12.19755 13.76135,9.6955 14.38686,12.19755 15.01237,2.18931 8.75722,11.57204 19.70375,-25.64615 14.0741,40.97128 12.19756,-1.25103 16.26341,38.78197 13.44858,8.75722 14.69962,13.13583 12.82307,10.63377 14.0741,15.01237 14.69963,12.51032 15.01237,11.8848"
           id="path3038"
           inkscape:connector-curvature="0" />
        <path
           style="fill:none;stroke:#666666;stroke-width:2;stroke-linecap:butt;stroke-linejoin:miter;stroke-miterlimit:4;stroke-opacity:1;stroke-dasharray:none"
           d="m 137.83879,357.20326 13.76135,12.19755 14.54324,11.72842 14.0741,10.00825 14.856,13.44859 13.91772,9.22636 12.97945,11.41566 15.63789,3.59671 16.69264,-16.91869 9.73074,14.81726 11.27882,32.06722 11.27881,1.54807 6.41344,4.42306 13.93265,28.97107 14.81727,8.62497 14.1538,13.7115 13.7115,10.17305 13.26919,11.05766 15.92303,13.26919 13.26919,9.73074"
           id="path3040"
           inkscape:connector-curvature="0" />
        <path
           style="fill:none;stroke:#666666;stroke-width:2;stroke-linecap:butt;stroke-linejoin:miter;stroke-miterlimit:4;stroke-opacity:1;stroke-dasharray:none"
           d="m 410.87764,553.00184 -15.25957,-9.95189 -13.7115,-13.26919 -14.81726,-14.15381 -14.1538,-9.73073 -13.93265,-13.04804 -13.49035,-8.62498 -15.70188,-32.73067 -11.94227,-2.87499 -9.50959,-24.99031 -4.86537,-24.99031 -29.19222,13.49034 -14.1538,2.65384 -13.49034,-11.94228 -13.93266,-9.50958 -14.81726,-13.26919 -14.15381,-9.06728 -14.1538,-11.49997 -13.49035,-10.83651"
           id="path3042"
           inkscape:connector-curvature="0" />
        <path
           style="fill:none;stroke:#666666;stroke-width:2;stroke-linecap:butt;stroke-linejoin:miter;stroke-miterlimit:4;stroke-opacity:1;stroke-dasharray:none"
           d="m 175.12834,338.48325 12.82689,12.38458 13.93265,11.05766 13.93265,10.17305 15.48072,14.81726 15.25957,8.40382 12.60573,13.49034 23.44224,-11.27881 18.35572,7.96152 16.80764,44.67294 11.94227,2.87499 13.93265,23.44224 15.25957,11.05766 13.04804,12.60573 14.81727,9.95189 13.00154,12.55404 15.32513,11.57204 14.69962,10.32101"
           id="path3044"
           inkscape:connector-curvature="0" />
        <path
           style="fill:none;stroke:#666666;stroke-width:2;stroke-linecap:butt;stroke-linejoin:miter;stroke-miterlimit:4;stroke-opacity:1;stroke-dasharray:none"
           d="m 447.9382,536.4135 -15.6379,-10.63376 -14.0741,-13.13583 -12.82307,-12.19756 -15.01238,-10.94652 -14.69962,-12.82308 -13.44859,-11.57204 -15.01237,-24.39511 -14.07411,-6.25515 -12.82307,-53.4816 -16.2634,20.95478 -13.13584,-14.69962 -14.69961,8.44447 -13.13583,-11.25929 -13.76135,-10.00825 -14.38686,-14.38686 -14.69961,-6.88067 -12.19756,-11.25928 -15.95065,-12.51032"
           id="path3046"
           inkscape:connector-curvature="0" />
        <path
           style="fill:none;stroke:#666666;stroke-width:2;stroke-linecap:butt;stroke-linejoin:miter;stroke-miterlimit:4;stroke-opacity:1;stroke-dasharray:none"
           d="m 210.86775,319.0468 14.0741,13.13584 14.0741,11.57203 14.38686,9.06998 14.69963,14.38686 14.0741,9.06998 11.8848,7.19343 16.88892,-0.62552 28.46096,7.50619 14.07411,39.72025 13.76134,8.44446 13.13583,19.07823 14.69962,11.8848 14.0741,12.82307 13.44859,10.321 14.69962,11.57205 15.01237,13.13583 13.44859,10.32101"
           id="path3048"
           inkscape:connector-curvature="0" />
        <path
           style="fill:none;stroke:#666666;stroke-width:2;stroke-linecap:butt;stroke-linejoin:miter;stroke-miterlimit:4;stroke-opacity:1;stroke-dasharray:none"
           d="m 229.47684,312.47889 14.54324,11.25928 13.44859,8.44447 14.69962,9.22635 13.60496,9.85187 15.01238,10.47739 12.3423,0.18724 16.36534,-0.22116 13.04803,4.42307 14.15381,6.41344 14.59611,31.62491 13.7115,21.67301 14.37496,16.14418 14.37495,15.92303 14.15381,12.60573 14.1538,12.16343 13.26919,12.38458 14.59611,13.71149 14.37496,9.73075"
           id="path3050"
           inkscape:connector-curvature="0" />
        <path
           style="fill:none;stroke:#666666;stroke-width:2;stroke-linecap:butt;stroke-linejoin:miter;stroke-miterlimit:4;stroke-opacity:1;stroke-dasharray:none"
           d="m 502.21391,510.54043 -14.1538,-12.16342 -14.15381,-13.26919 -14.37495,-12.60574 -14.15381,-13.93265 -13.49034,-13.93265 -13.93266,-19.01917 -15.03842,-14.59612 -14.1538,-26.09607 -13.26919,-13.49035 -15.03841,-18.79801 -13.49035,-2.21154 -14.1538,-18.35571 -13.26919,5.97113 -14.59612,-9.28843 -13.7115,-2.21153 -15.48072,-9.28844 -13.49034,-6.41344 -15.25957,-13.93265"
           id="path3052"
           inkscape:connector-curvature="0" />
        <path
           style="fill:none;stroke:#666666;stroke-width:2;stroke-linecap:butt;stroke-linejoin:miter;stroke-miterlimit:4;stroke-opacity:1;stroke-dasharray:none"
           d="m 266.24346,290.493 13.49034,13.49035 13.7115,1.99038 15.25957,8.40382 15.03841,3.98076 14.81727,9.73074 12.16342,2.65383 13.93265,20.3461 16.36534,10.61535 12.38458,13.26919 14.81726,7.51921 15.03842,14.81727 12.82689,15.70188 14.1538,20.12494 13.7115,13.49034 15.03842,16.14418 14.37496,13.04804 14.1538,13.93265 12.60573,12.38458"
           id="path3054"
           inkscape:connector-curvature="0" />
        <path
           style="fill:none;stroke:#666666;stroke-width:2;stroke-linecap:butt;stroke-linejoin:miter;stroke-miterlimit:4;stroke-opacity:1;stroke-dasharray:none"
           d="m 286.3684,235.64701 12.38457,29.19222 15.03842,-4.2019 13.26919,25.65377 13.04804,-7.07691 14.59611,32.73068 15.03842,1.10576 13.93265,31.1826 14.59611,8.84613 13.49035,17.91341 11.05765,-2.65384 4.42307,0.66346 12.38458,19.46148 14.81726,-4.20191 13.93265,29.63453 13.7115,6.19229 15.03842,24.99031 14.1538,9.28843 13.93266,19.68263 15.25956,6.41345"
           id="path3056"
           inkscape:connector-curvature="0" />
        <path
           style="fill:none;stroke:#666666;stroke-width:2;stroke-linecap:butt;stroke-linejoin:miter;stroke-miterlimit:4;stroke-opacity:1;stroke-dasharray:none"
           d="m 303.17604,226.80089 7.5192,32.50952 22.50234,9.84131 18.88033,20.65222 8.60084,13.44859 4.53499,6.7243 12.04118,11.72841 15.01238,20.95478 11.88479,13.44859 19.07824,12.66669 4.22223,-0.15638 11.8848,20.0165 15.79427,-4.3786 19.86012,11.72842 11.57204,8.60083 14.38686,9.53912 14.23048,22.51856 14.38686,10.00825 13.76135,23.14409 14.38685,2.50206"
           id="path3058"
           inkscape:connector-curvature="0" />
        <path
           style="fill:none;stroke:#666666;stroke-width:2;stroke-linecap:butt;stroke-linejoin:miter;stroke-miterlimit:4;stroke-opacity:1;stroke-dasharray:none"
           d="m 575.85615,429.13756 -12.82307,6.25516 -15.32514,-24.08235 -12.82306,3.44033 -15.32514,-20.95477 -17.51444,7.81894 -9.69549,-11.57203 -14.69962,-2.50207 -15.32514,-7.19343 -12.19755,-8.44446 -15.32514,-10.94653 -14.38686,-12.82306 -14.69961,-16.88893 -14.69962,-13.76135 -10.94653,-26.58441 -1.56379,-0.62552 -14.38686,-9.06998 -14.0741,-34.40336"
           id="path3060"
           inkscape:connector-curvature="0" />
        <path
           style="fill:none;stroke:#666666;stroke-width:2;stroke-linecap:butt;stroke-linejoin:miter;stroke-miterlimit:4;stroke-opacity:1;stroke-dasharray:none"
           d="m 353.64171,248.98905 9.53911,20.79839 7.50618,11.8848 13.29221,10.63377 13.13584,11.1029 13.2922,15.16876 15.16876,11.1029 13.60497,14.0741 14.38686,9.69549 15.63789,12.19756 13.91772,9.22636 12.82307,9.22636 14.69962,9.22635 13.91773,5.00413 14.23048,13.76134 20.69824,9.54459 8.84612,11.72112 26.31723,12.82688"
           id="path3062"
           inkscape:connector-curvature="0"
           sodipodi:nodetypes="cccccccccccccccccc" />
        <path
           style="fill:none;stroke:#666666;stroke-width:2;stroke-linecap:butt;stroke-linejoin:miter;stroke-miterlimit:4;stroke-opacity:1;stroke-dasharray:none"
           d="m 358.35376,243.05565 -0.33173,2.21153 12.60573,15.70187 16.0336,9.17786 13.60093,12.05285 14.81726,13.26919 15.149,13.04804 12.16342,11.8317 15.70188,13.93265 14.26438,10.28362 14.04323,12.16343 14.48553,10.39419 13.49035,9.84132 12.93746,9.62016 15.07626,10.33944 12.97945,4.69137 14.38686,13.29221 15.79427,0.46914 12.6667,20.7984 14.38686,2.81481"
           id="path3064"
           inkscape:connector-curvature="0" />
        <path
           style="fill:none;stroke:#666666;stroke-width:2;stroke-linecap:butt;stroke-linejoin:miter;stroke-miterlimit:4;stroke-opacity:1;stroke-dasharray:none"
           d="m 369.74873,244.61044 7.19343,3.44033 14.23049,11.41566 12.04117,7.97533 18.45272,10.79015 12.51031,12.35393 12.04118,12.19756 16.57616,11.88479 14.07411,12.97945 15.01237,10.63377 13.29221,11.1029 13.29221,10.32101 13.76134,9.85187 14.38686,12.35394 11.72842,12.82307 18.84313,12.30654 12.16343,9.50958 16.14418,12.82689 11.94228,9.73074 13.71149,11.49997"
           id="path3066"
           inkscape:connector-curvature="0" />
        <path
           style="fill:none;stroke:#666666;stroke-width:2;stroke-linecap:butt;stroke-linejoin:miter;stroke-miterlimit:4;stroke-opacity:1;stroke-dasharray:none"
           d="m 393.29596,234.87298 4.53364,4.75479 10.28363,9.84132 14.26438,8.84613 17.36052,12.93746 11.94228,12.16342 15.14899,10.83651 13.7115,10.3942 13.93265,12.38458 13.26919,11.27881 15.70188,11.49997 14.37496,10.8365 14.37495,11.27882 14.15381,11.94227 11.49996,11.94227 15.92303,11.27881 15.25957,10.17305 13.49034,13.04804 12.16343,11.72112 17.4711,10.3942"
           id="path3068"
           inkscape:connector-curvature="0" />
        <path
           style="fill:none;stroke:#666666;stroke-width:2;stroke-linecap:butt;stroke-linejoin:miter;stroke-miterlimit:4;stroke-opacity:1;stroke-dasharray:none"
           d="m 410.65649,227.57492 7.51921,6.52402 8.73555,9.17786 15.5913,8.18267 15.37015,11.38939 13.04804,11.83169 27.09126,23.33166 16.58649,11.49997 24.54801,20.7884 17.02879,12.38458 14.37496,11.94227 14.1538,10.3942 11.27881,12.16342 16.36534,11.49997 12.82689,10.61536 15.48072,13.26919 11.49996,8.40382 18.13457,13.26919"
           id="path3070"
           inkscape:connector-curvature="0" />
        <path
           style="fill:none;stroke:#666666;stroke-width:2;stroke-linecap:butt;stroke-linejoin:miter;stroke-miterlimit:4;stroke-opacity:1;stroke-dasharray:none"
           d="m 398.71422,353.96397 c 1.32692,0 20.56725,11.94228 20.56725,11.94228 l 15.25957,-5.08653 19.24032,-7.96151 17.4711,-9.06729 20.12495,-6.63459 15.70187,-9.06728 19.24033,-8.84613"
           id="path3072"
           inkscape:connector-curvature="0" />
      </g>
    </g>
    <path
       style="fill:none;stroke:#000000;stroke-width:3;stroke-miterlimit:4;stroke-opacity:1;stroke-dasharray:none"
       d="m 72.832509,286.07489 18.940357,-8.71257 17.677674,-9.59645 20.07678,-9.09137 54.33997,-27.60434 19.10715,-10.35714 17.84541,-6.86404 18.05648,-15.15229 18.30902,-6.81853 19.69797,-55.55839 16.98397,-7.66032 19.28572,-12.14286 13.92857,32.14286 14.64286,-1.42857 2.77597,2.97849 4.94724,-6.32671 13.125,1.91965 22.14446,-9.48254 16.03617,-7.44987 8.08122,6.18718 8.46002,9.72272 16.03706,7.62965 14.64286,11.42857 13.57143,11.60715 12.67857,11.07142 14.28584,12.55891 16.66752,11.11168 11.86929,11.36421 14.39467,10.60661 15.65737,12.37437 13.76333,10.85913 14.2684,10.60661 c 0,0 12.62691,12.87944 11.99556,12.87944 -0.63134,0 15.5311,10.6066 15.5311,10.6066 l 12.75317,10.76444 16.67089,13.58943 10.71429,7.85715 18.39285,13.39285 -17.85714,7.67857 -20.89286,8.57143 -18.57143,-10.71428 -18.57142,7.05357 -3.21429,-1.42857 -9.73214,11.42857 -10.98215,-12.94643 -11.99532,29.10101 -18.36182,8.22042 -19.14009,20.94774 -18.43529,9.21764 -18.30901,7.57614 -18.75847,8.86562 -18.23837,9.4434 -18.68782,7.57614 -18.43095,8.60546 -18.30357,6.60714 -17.76786,10.98215 -17.91293,9.7288 -20.39246,6.7554 -10.98541,-11.23795 -15.15228,-12.75318 -15.02602,-16.41498 -15.34169,-11.55362 -11.88564,-12.02447 -14.91071,-11.33929 -11.60714,-40.26786 -9.46429,-5.53571 -38.75,-1.25 -10.35714,-9.19643 -15.08929,-7.41071 -14.14173,-10.39211 -15.41184,-12.19718 -12.36735,-10.91006 -16.414984,-7.19734 -13.51079,-11.61675 z"
       id="path3933-7-9"
       inkscape:connector-curvature="0" />
    <text
       xml:space="preserve"
       style="font-size:48px;font-style:normal;font-variant:normal;font-weight:normal;font-stretch:normal;text-align:center;line-height:125%;letter-spacing:0px;word-spacing:0px;text-anchor:middle;fill:#000000;fill-opacity:1;stroke:none;font-family:Times New Roman;-inkscape-font-specification:Times New Roman"
       x="576.0993"
       y="68.076469"
       id="text4523"
       sodipodi:linespacing="125%"><tspan
         sodipodi:role="line"
         id="tspan4525"
         x="576.0993"
         y="68.076469"
         style="font-size:28px">Distncias topogrficas</tspan><tspan
         sodipodi:role="line"
         x="576.0993"
         y="103.07646"
         id="tspan4527"
         style="font-size:28px">entre os neurnios</tspan></text>
    <path
       style="fill:none;stroke:#000000;stroke-width:2;stroke-linecap:butt;stroke-linejoin:miter;stroke-opacity:1;stroke-miterlimit:4;stroke-dasharray:none"
       d="m 571.74634,112.92032 -68.69037,77.78174"
       id="path4529"
       inkscape:connector-curvature="0" />
    <path
       sodipodi:type="star"
       style="fill:#000000;stroke:none"
       id="path4531"
       sodipodi:sides="3"
       sodipodi:cx="588.57141"
       sodipodi:cy="150.21931"
       sodipodi:r1="7.9859571"
       sodipodi:r2="3.9929786"
       sodipodi:arg1="0.52359878"
       sodipodi:arg2="1.5707963"
       inkscape:flatsided="true"
       inkscape:rounded="0"
       inkscape:randomized="0"
       d="m 595.48745,154.21229 -13.83208,0 6.91604,-11.97893 z"
       inkscape:transform-center-y="-0.56643231"
       transform="matrix(-0.51175998,-0.45926839,0.45926839,-0.51175998,735.63939,537.56798)"
       inkscape:transform-center-x="-0.85274906" />
    <text
       xml:space="preserve"
       style="font-size:48px;font-style:normal;font-variant:normal;font-weight:normal;font-stretch:normal;text-align:center;line-height:125%;letter-spacing:0px;word-spacing:0px;text-anchor:middle;fill:#000000;fill-opacity:1;stroke:none;font-family:Times New Roman;-inkscape-font-specification:Times New Roman"
       x="98.531822"
       y="612.31647"
       id="text4523-4"
       sodipodi:linespacing="125%"><tspan
         sodipodi:role="line"
         x="98.531822"
         y="612.31647"
         id="tspan4527-8"
         style="font-size:28px">Mapa</tspan></text>
    <path
       style="fill:none;stroke:#000000;stroke-width:2;stroke-linecap:butt;stroke-linejoin:miter;stroke-miterlimit:4;stroke-opacity:1;stroke-dasharray:none"
       d="m 108.54537,585.14723 86.4812,-57.35303"
       id="path4529-3"
       inkscape:connector-curvature="0" />
    <path
       sodipodi:type="star"
       style="fill:#000000;stroke:none"
       id="path4531-6"
       sodipodi:sides="3"
       sodipodi:cx="588.57141"
       sodipodi:cy="150.21931"
       sodipodi:r1="7.9859571"
       sodipodi:r2="3.9929786"
       sodipodi:arg1="0.52359878"
       sodipodi:arg2="1.5707963"
       inkscape:flatsided="true"
       inkscape:rounded="0"
       inkscape:randomized="0"
       d="m 595.48745,154.21229 -13.83208,0 6.91604,-11.97893 z"
       inkscape:transform-center-y="1.2424734"
       transform="matrix(0.37545478,0.57607243,-0.57607243,0.37545478,60.143741,132.55045)"
       inkscape:transform-center-x="0.14820365" />
  </g>
</svg>
